<svg width="69" height="69" viewBox="0 0 69 69" fill="none" xmlns="http://www.w3.org/2000/svg">
<circle cx="34.5" cy="34.5" r="34.5" fill="#A371E0"/>
<path fill-rule="evenodd" clip-rule="evenodd" d="M18.375 12.646C18.7894 12.646 19.1868 12.8106 19.4799 13.1036C19.7729 13.3967 19.9375 13.7941 19.9375 14.2085V19.3418C21.9574 17.4047 24.3559 15.9059 26.9824 14.9394C29.6089 13.973 32.4068 13.5597 35.2006 13.7255C37.9944 13.8914 40.7237 14.6328 43.2175 15.9032C45.7112 17.1736 47.9155 18.9457 49.6921 21.1082C51.4686 23.2707 52.7792 25.777 53.5414 28.4698C54.3037 31.1627 54.5013 33.984 54.1218 36.7569C53.7422 39.5297 52.7938 42.1942 51.336 44.5832C49.8781 46.9722 47.9423 49.0342 45.65 50.6397C45.4819 50.7574 45.2922 50.8408 45.0919 50.8851C44.8916 50.9295 44.6844 50.9339 44.4824 50.8982C44.2803 50.8625 44.0873 50.7874 43.9142 50.6771C43.7412 50.5668 43.5916 50.4235 43.474 50.2554C43.3563 50.0873 43.2729 49.8976 43.2286 49.6973C43.1842 49.4969 43.1798 49.2898 43.2155 49.0877C43.2512 48.8857 43.3263 48.6926 43.4366 48.5196C43.5469 48.3466 43.6902 48.197 43.8583 48.0793C45.8227 46.7077 47.4787 44.9406 48.7199 42.8913C49.9612 40.8421 50.7604 38.556 51.0662 36.1798C51.3721 33.8035 51.1778 31.3896 50.4959 29.0928C49.8139 26.796 48.6594 24.6672 47.1063 22.8429C45.5533 21.0185 43.636 19.539 41.4776 18.4992C39.3191 17.4594 36.9671 16.8823 34.5725 16.8049C32.1779 16.7275 29.7936 17.1516 27.5725 18.0498C25.3514 18.9481 23.3426 20.3007 21.675 22.021H27.75C28.1644 22.021 28.5618 22.1856 28.8549 22.4786C29.1479 22.7717 29.3125 23.1691 29.3125 23.5835C29.3125 23.9979 29.1479 24.3953 28.8549 24.6884C28.5618 24.9814 28.1644 25.146 27.75 25.146H18.375C17.9606 25.146 17.5632 24.9814 17.2701 24.6884C16.9771 24.3953 16.8125 23.9979 16.8125 23.5835V14.2085C16.8125 13.7941 16.9771 13.3967 17.2701 13.1036C17.5632 12.8106 17.9606 12.646 18.375 12.646ZM34 19.9377C34.4144 19.9377 34.8118 20.1023 35.1049 20.3953C35.3979 20.6883 35.5625 21.0858 35.5625 21.5002V33.3543L40.3125 38.1043C40.466 38.2474 40.5891 38.4199 40.6745 38.6115C40.7599 38.8032 40.8059 39.0101 40.8096 39.2199C40.8133 39.4297 40.7747 39.6381 40.6961 39.8327C40.6175 40.0272 40.5005 40.204 40.3522 40.3523C40.2038 40.5007 40.0271 40.6177 39.8325 40.6963C39.6379 40.7748 39.4295 40.8134 39.2197 40.8097C39.01 40.806 38.803 40.7601 38.6114 40.6747C38.4197 40.5893 38.2472 40.4662 38.1042 40.3127L32.8958 35.1043C32.6027 34.8116 32.4379 34.4144 32.4375 34.0002V21.5002C32.4375 21.0858 32.6021 20.6883 32.8951 20.3953C33.1882 20.1023 33.5856 19.9377 34 19.9377ZM15.25 32.4377C15.6644 32.4377 16.0618 32.6023 16.3549 32.8953C16.6479 33.1883 16.8125 33.5858 16.8125 34.0002C16.8125 34.9147 16.8854 35.8272 17.0313 36.7293C17.0641 36.9319 17.0567 37.139 17.0095 37.3387C16.9623 37.5385 16.8762 37.7269 16.7562 37.8934C16.6361 38.0599 16.4845 38.2011 16.3099 38.3089C16.1353 38.4168 15.9411 38.4892 15.7385 38.522C15.536 38.5549 15.3289 38.5475 15.1291 38.5003C14.9294 38.4531 14.7409 38.367 14.5745 38.247C14.408 38.1269 14.2668 37.9753 14.1589 37.8007C14.0511 37.6261 13.9787 37.4319 13.9458 37.2293C13.7739 36.1615 13.6875 35.0817 13.6875 34.0002C13.6875 33.5858 13.8521 33.1883 14.1451 32.8953C14.4382 32.6023 14.8356 32.4377 15.25 32.4377ZM19.1146 42.5939C18.9059 42.238 18.5649 41.979 18.166 41.8735C17.7671 41.7681 17.3427 41.8247 16.9854 42.031C16.628 42.2373 16.3668 42.5766 16.2587 42.9748C16.1506 43.3729 16.2044 43.7977 16.4083 44.1564C16.95 45.0939 17.5646 45.9835 18.2458 46.8231C18.3741 46.986 18.5335 47.1218 18.7148 47.2226C18.896 47.3233 19.0955 47.3869 19.3017 47.4098C19.5078 47.4326 19.7164 47.4142 19.9153 47.3556C20.1142 47.297 20.2995 47.1993 20.4603 47.0684C20.6211 46.9375 20.7542 46.7758 20.8519 46.5929C20.9496 46.41 21.0099 46.2094 21.0293 46.003C21.0487 45.7965 21.0269 45.5882 20.9649 45.3903C20.903 45.1924 20.8023 45.0088 20.6688 44.8502C20.0915 44.1406 19.5718 43.3861 19.1146 42.5939ZM23.2708 49.4564C23.3735 49.2787 23.5102 49.1229 23.6731 48.998C23.836 48.8731 24.022 48.7816 24.2203 48.7285C24.4186 48.6755 24.6254 48.6621 24.8289 48.6891C25.0324 48.716 25.2286 48.7828 25.4063 48.8856C26.1979 49.3439 27.025 49.7356 27.8813 50.0606C28.073 50.1338 28.2485 50.244 28.3977 50.385C28.5469 50.526 28.6668 50.695 28.7507 50.8824C28.8346 51.0698 28.8807 51.2718 28.8865 51.477C28.8923 51.6822 28.8576 51.8865 28.7844 52.0783C28.7112 52.2701 28.6009 52.4456 28.4599 52.5947C28.3189 52.7439 28.1499 52.8639 27.9626 52.9477C27.7752 53.0316 27.5732 53.0777 27.368 53.0835C27.1628 53.0893 26.9585 53.0546 26.7667 52.9814C25.7569 52.5968 24.7795 52.1321 23.8438 51.5918C23.6658 51.4893 23.5099 51.3527 23.3848 51.1899C23.2597 51.0271 23.1679 50.8412 23.1147 50.6429C23.0615 50.4445 23.0479 50.2377 23.0747 50.0341C23.1015 49.8305 23.1681 49.6342 23.2708 49.4564ZM37.2292 54.0543C37.6281 53.9774 37.9814 53.748 38.2141 53.4149C38.4468 53.0818 38.5406 52.6711 38.4755 52.27C38.4105 51.8689 38.1918 51.5089 37.8657 51.2664C37.5397 51.0239 37.132 50.9179 36.7292 50.971C35.8271 51.1147 34.9146 51.1877 34 51.1877C33.5856 51.1877 33.1882 51.3523 32.8951 51.6453C32.6021 51.9383 32.4375 52.3358 32.4375 52.7502C32.4375 53.1646 32.6021 53.562 32.8951 53.855C33.1882 54.148 33.5856 54.3127 34 54.3127C35.0813 54.3127 36.1604 54.2272 37.2292 54.0543Z" fill="white"/>
</svg>
