<svg width="69" height="69" viewBox="0 0 69 69" fill="none" xmlns="http://www.w3.org/2000/svg">
<circle cx="34.5" cy="34.5" r="34.5" fill="#A371E0"/>
<path fill-rule="evenodd" clip-rule="evenodd" d="M43.7292 14.5522C43.568 14.2293 43.3 13.9721 42.9708 13.8244C42.6415 13.6767 42.2713 13.6475 41.9229 13.7418L19.2083 19.9376H17.3333C16.3664 19.9376 15.4391 20.3217 14.7553 21.0054C14.0716 21.6892 13.6875 22.6165 13.6875 23.5834V46.5001C13.6875 48.5126 15.3208 50.1459 17.3333 50.1459H48.5833C49.5503 50.1459 50.4776 49.7618 51.1613 49.0781C51.8451 48.3944 52.2292 47.467 52.2292 46.5001V41.4626C53.4604 40.8772 54.3125 39.6209 54.3125 38.1668V31.9168C54.3125 30.4626 53.4604 29.2084 52.2292 28.6209V23.5834C52.2292 22.6165 51.8451 21.6892 51.1613 21.0054C50.4776 20.3217 49.5503 19.9376 48.5833 19.9376H46.4229L43.7292 14.5522ZM42.9292 19.9376L41.5083 17.0939L31.0833 19.9376H42.9312H42.9292ZM16.8125 23.5834C16.8125 23.4453 16.8674 23.3128 16.965 23.2152C17.0627 23.1175 17.1952 23.0626 17.3333 23.0626H48.5833C48.7215 23.0626 48.8539 23.1175 48.9516 23.2152C49.0493 23.3128 49.1042 23.4453 49.1042 23.5834V28.2709H40.9854H40.9437C40.8478 28.2724 40.7519 28.2773 40.6562 28.2855C39.659 28.361 38.6877 28.6396 37.8021 29.1043C36.8715 29.5898 36.0859 30.3129 35.525 31.2001C34.8896 32.2126 34.5208 33.4855 34.5208 35.0418C34.5208 36.598 34.8896 37.8709 35.525 38.8834C36.1583 39.8897 36.9958 40.5501 37.8021 40.9793C38.7737 41.4887 39.8474 41.7735 40.9437 41.8126H40.9833H49.1042V46.5001C49.1042 46.6382 49.0493 46.7707 48.9516 46.8684C48.8539 46.9661 48.7215 47.0209 48.5833 47.0209H17.3333C17.1952 47.0209 17.0627 46.9661 16.965 46.8684C16.8674 46.7707 16.8125 46.6382 16.8125 46.5001V23.5834ZM40.9854 31.3959H50.6667C50.8048 31.3959 50.9373 31.4508 51.035 31.5485C51.1326 31.6462 51.1875 31.7786 51.1875 31.9168V38.1668C51.1875 38.3049 51.1326 38.4374 51.035 38.5351C50.9373 38.6327 50.8048 38.6876 50.6667 38.6876H40.9854C40.8199 38.6788 40.655 38.66 40.4917 38.6314C40.0646 38.5577 39.6514 38.4185 39.2667 38.2189C38.8201 37.9899 38.4426 37.6462 38.1729 37.223C37.8896 36.7689 37.6458 36.0897 37.6458 35.0418C37.6458 33.9939 37.8896 33.3126 38.1729 32.8605C38.4604 32.4022 38.8458 32.0876 39.2667 31.8647C39.7996 31.5878 40.3856 31.4279 40.9854 31.3959ZM39.7292 35.0418C39.7292 34.6274 39.8938 34.2299 40.1868 33.9369C40.4798 33.6439 40.8773 33.4793 41.2917 33.4793H41.3125C41.7269 33.4793 42.1243 33.6439 42.4174 33.9369C42.7104 34.2299 42.875 34.6274 42.875 35.0418C42.875 35.4562 42.7104 35.8536 42.4174 36.1466C42.1243 36.4396 41.7269 36.6043 41.3125 36.6043H41.2917C40.8773 36.6043 40.4798 36.4396 40.1868 36.1466C39.8938 35.8536 39.7292 35.4562 39.7292 35.0418Z" fill="white"/>
</svg>
