<svg width="69" height="69" viewBox="0 0 69 69" fill="none" xmlns="http://www.w3.org/2000/svg">
<circle cx="34.5" cy="34.5" r="34.5" fill="#A371E0"/>
<path fill-rule="evenodd" clip-rule="evenodd" d="M20.9805 51.1875V16.8125H47.0221V51.1875H20.9805ZM20.4596 13.6875C19.0221 13.6875 17.8555 14.8542 17.8555 16.2917V51.7083C17.8555 53.1458 19.0221 54.3125 20.4596 54.3125H47.543C48.9805 54.3125 50.1471 53.1458 50.1471 51.7083V16.2917C50.1471 14.8542 48.9805 13.6875 47.543 13.6875H20.4596ZM31.8138 20.25C31.978 20.3731 32.1163 20.5274 32.2208 20.7039C32.3253 20.8805 32.3941 21.0759 32.4231 21.279C32.4521 21.4822 32.4408 21.689 32.3899 21.8878C32.339 22.0866 32.2494 22.2733 32.1263 22.4375L29.0013 26.6042C28.8669 26.7831 28.6957 26.9311 28.4992 27.0381C28.3027 27.1451 28.0854 27.2087 27.8622 27.2245C27.639 27.2403 27.415 27.208 27.2054 27.1297C26.9958 27.0514 26.8054 26.929 26.6471 26.7708L24.5638 24.6875C24.2878 24.3913 24.1375 23.9995 24.1447 23.5947C24.1518 23.1899 24.3158 22.8037 24.6021 22.5175C24.8884 22.2312 25.2746 22.0672 25.6794 22.0601C26.0842 22.0529 26.4759 22.2032 26.7721 22.4792L27.5826 23.2875L29.6263 20.5625C29.7494 20.3983 29.9037 20.2601 30.0802 20.1555C30.2568 20.051 30.4522 19.9822 30.6553 19.9532C30.8585 19.9242 31.0653 19.9355 31.2641 19.9864C31.4629 20.0373 31.6497 20.1269 31.8138 20.25ZM36.0846 22.0208C35.6702 22.0208 35.2728 22.1855 34.9798 22.4785C34.6868 22.7715 34.5221 23.1689 34.5221 23.5833C34.5221 23.9977 34.6868 24.3952 34.9798 24.6882C35.2728 24.9812 35.6702 25.1458 36.0846 25.1458H41.293C41.7074 25.1458 42.1048 24.9812 42.3978 24.6882C42.6909 24.3952 42.8555 23.9977 42.8555 23.5833C42.8555 23.1689 42.6909 22.7715 42.3978 22.4785C42.1048 22.1855 41.7074 22.0208 41.293 22.0208H36.0846ZM27.7513 32.4375C27.3369 32.4375 26.9395 32.6021 26.6464 32.8951C26.3534 33.1882 26.1888 33.5856 26.1888 34C26.1888 34.4144 26.3534 34.8118 26.6464 35.1049C26.9395 35.3979 27.3369 35.5625 27.7513 35.5625H27.7721C28.1865 35.5625 28.584 35.3979 28.877 35.1049C29.17 34.8118 29.3346 34.4144 29.3346 34C29.3346 33.5856 29.17 33.1882 28.877 32.8951C28.584 32.6021 28.1865 32.4375 27.7721 32.4375H27.7513ZM32.4388 34C32.4388 33.5856 32.6034 33.1882 32.8965 32.8951C33.1895 32.6021 33.5869 32.4375 34.0013 32.4375H41.293C41.7074 32.4375 42.1048 32.6021 42.3978 32.8951C42.6909 33.1882 42.8555 33.5856 42.8555 34C42.8555 34.4144 42.6909 34.8118 42.3978 35.1049C42.1048 35.3979 41.7074 35.5625 41.293 35.5625H34.0013C33.5869 35.5625 33.1895 35.3979 32.8965 35.1049C32.6034 34.8118 32.4388 34.4144 32.4388 34ZM32.4388 42.3333C32.4388 41.9189 32.6034 41.5215 32.8965 41.2285C33.1895 40.9355 33.5869 40.7708 34.0013 40.7708H41.293C41.7074 40.7708 42.1048 40.9355 42.3978 41.2285C42.6909 41.5215 42.8555 41.9189 42.8555 42.3333C42.8555 42.7477 42.6909 43.1452 42.3978 43.4382C42.1048 43.7312 41.7074 43.8958 41.293 43.8958H34.0013C33.5869 43.8958 33.1895 43.7312 32.8965 43.4382C32.6034 43.1452 32.4388 42.7477 32.4388 42.3333ZM26.1888 42.3333C26.1888 41.9189 26.3534 41.5215 26.6464 41.2285C26.9395 40.9355 27.3369 40.7708 27.7513 40.7708H27.7721C28.1865 40.7708 28.584 40.9355 28.877 41.2285C29.17 41.5215 29.3346 41.9189 29.3346 42.3333C29.3346 42.7477 29.17 43.1452 28.877 43.4382C28.584 43.7312 28.1865 43.8958 27.7721 43.8958H27.7513C27.3369 43.8958 26.9395 43.7312 26.6464 43.4382C26.3534 43.1452 26.1888 42.7477 26.1888 42.3333Z" fill="white"/>
</svg>
