<svg width="89" height="165" viewBox="0 0 89 165" fill="none" xmlns="http://www.w3.org/2000/svg">
<path fill-rule="evenodd" clip-rule="evenodd" d="M7.5 15C11.6421 15 15 11.6421 15 7.5C15 3.35786 11.6421 0 7.5 0C3.35786 0 0 3.35786 0 7.5C0 11.6421 3.35786 15 7.5 15ZM37.5 15C41.6421 15 45 11.6421 45 7.5C45 3.35786 41.6421 0 37.5 0C33.3579 0 30 3.35786 30 7.5C30 11.6421 33.3579 15 37.5 15ZM75 7.5C75 11.6421 71.6421 15 67.5 15C63.3579 15 60 11.6421 60 7.5C60 3.35786 63.3579 0 67.5 0C71.6421 0 75 3.35786 75 7.5ZM97.5 15C101.642 15 105 11.6421 105 7.5C105 3.35786 101.642 0 97.5 0C93.3579 0 90 3.35786 90 7.5C90 11.6421 93.3579 15 97.5 15Z" fill="#D8C0F6"/>
<path fill-rule="evenodd" clip-rule="evenodd" d="M7.5 45C11.6421 45 15 41.6421 15 37.5C15 33.3579 11.6421 30 7.5 30C3.35786 30 0 33.3579 0 37.5C0 41.6421 3.35786 45 7.5 45ZM37.5 45C41.6421 45 45 41.6421 45 37.5C45 33.3579 41.6421 30 37.5 30C33.3579 30 30 33.3579 30 37.5C30 41.6421 33.3579 45 37.5 45ZM75 37.5C75 41.6421 71.6421 45 67.5 45C63.3579 45 60 41.6421 60 37.5C60 33.3579 63.3579 30 67.5 30C71.6421 30 75 33.3579 75 37.5ZM97.5 45C101.642 45 105 41.6421 105 37.5C105 33.3579 101.642 30 97.5 30C93.3579 30 90 33.3579 90 37.5C90 41.6421 93.3579 45 97.5 45Z" fill="#D8C0F6"/>
<path fill-rule="evenodd" clip-rule="evenodd" d="M7.5 75C11.6421 75 15 71.6421 15 67.5C15 63.3579 11.6421 60 7.5 60C3.35786 60 0 63.3579 0 67.5C0 71.6421 3.35786 75 7.5 75ZM37.5 75C41.6421 75 45 71.6421 45 67.5C45 63.3579 41.6421 60 37.5 60C33.3579 60 30 63.3579 30 67.5C30 71.6421 33.3579 75 37.5 75ZM75 67.5C75 71.6421 71.6421 75 67.5 75C63.3579 75 60 71.6421 60 67.5C60 63.3579 63.3579 60 67.5 60C71.6421 60 75 63.3579 75 67.5ZM97.5 75C101.642 75 105 71.6421 105 67.5C105 63.3579 101.642 60 97.5 60C93.3579 60 90 63.3579 90 67.5C90 71.6421 93.3579 75 97.5 75Z" fill="#D8C0F6"/>
<path fill-rule="evenodd" clip-rule="evenodd" d="M7.5 105C11.6421 105 15 101.642 15 97.5C15 93.3579 11.6421 90 7.5 90C3.35786 90 0 93.3579 0 97.5C0 101.642 3.35786 105 7.5 105ZM37.5 105C41.6421 105 45 101.642 45 97.5C45 93.3579 41.6421 90 37.5 90C33.3579 90 30 93.3579 30 97.5C30 101.642 33.3579 105 37.5 105ZM75 97.5C75 101.642 71.6421 105 67.5 105C63.3579 105 60 101.642 60 97.5C60 93.3579 63.3579 90 67.5 90C71.6421 90 75 93.3579 75 97.5ZM97.5 105C101.642 105 105 101.642 105 97.5C105 93.3579 101.642 90 97.5 90C93.3579 90 90 93.3579 90 97.5C90 101.642 93.3579 105 97.5 105Z" fill="#D8C0F6"/>
<path fill-rule="evenodd" clip-rule="evenodd" d="M7.5 135C11.6421 135 15 131.642 15 127.5C15 123.358 11.6421 120 7.5 120C3.35786 120 0 123.358 0 127.5C0 131.642 3.35786 135 7.5 135ZM37.5 135C41.6421 135 45 131.642 45 127.5C45 123.358 41.6421 120 37.5 120C33.3579 120 30 123.358 30 127.5C30 131.642 33.3579 135 37.5 135ZM75 127.5C75 131.642 71.6421 135 67.5 135C63.3579 135 60 131.642 60 127.5C60 123.358 63.3579 120 67.5 120C71.6421 120 75 123.358 75 127.5ZM97.5 135C101.642 135 105 131.642 105 127.5C105 123.358 101.642 120 97.5 120C93.3579 120 90 123.358 90 127.5C90 131.642 93.3579 135 97.5 135Z" fill="#D8C0F6"/>
<path fill-rule="evenodd" clip-rule="evenodd" d="M7.5 165C11.6421 165 15 161.642 15 157.5C15 153.358 11.6421 150 7.5 150C3.35786 150 0 153.358 0 157.5C0 161.642 3.35786 165 7.5 165ZM37.5 165C41.6421 165 45 161.642 45 157.5C45 153.358 41.6421 150 37.5 150C33.3579 150 30 153.358 30 157.5C30 161.642 33.3579 165 37.5 165ZM75 157.5C75 161.642 71.6421 165 67.5 165C63.3579 165 60 161.642 60 157.5C60 153.358 63.3579 150 67.5 150C71.6421 150 75 153.358 75 157.5ZM97.5 165C101.642 165 105 161.642 105 157.5C105 153.358 101.642 150 97.5 150C93.3579 150 90 153.358 90 157.5C90 161.642 93.3579 165 97.5 165Z" fill="#D8C0F6"/>
</svg>
