<svg width="20" height="20" viewBox="0 0 20 20" fill="none" xmlns="http://www.w3.org/2000/svg">
<path fill-rule="evenodd" clip-rule="evenodd" d="M5.44163 4.55837C5.32315 4.44797 5.16645 4.38787 5.00453 4.39072C4.84261 4.39358 4.68812 4.45917 4.57361 4.57368C4.4591 4.68819 4.39351 4.84268 4.39065 5.0046C4.3878 5.16652 4.4479 5.32322 4.5583 5.4417L9.11663 10L4.5583 14.5584C4.49689 14.6156 4.44764 14.6846 4.41348 14.7613C4.37932 14.8379 4.36095 14.9207 4.35947 15.0046C4.35799 15.0885 4.37343 15.1719 4.40486 15.2497C4.4363 15.3275 4.48308 15.3982 4.54243 15.4576C4.60178 15.5169 4.67248 15.5637 4.7503 15.5951C4.82812 15.6266 4.91148 15.642 4.9954 15.6405C5.07932 15.639 5.16208 15.6207 5.23875 15.5865C5.31541 15.5524 5.38441 15.5031 5.44163 15.4417L9.99997 10.8834L14.5583 15.4417C14.6155 15.5031 14.6845 15.5524 14.7612 15.5865C14.8378 15.6207 14.9206 15.639 15.0045 15.6405C15.0884 15.642 15.1718 15.6266 15.2496 15.5951C15.3275 15.5637 15.3981 15.5169 15.4575 15.4576C15.5168 15.3982 15.5636 15.3275 15.5951 15.2497C15.6265 15.1719 15.6419 15.0885 15.6405 15.0046C15.639 14.9207 15.6206 14.8379 15.5864 14.7613C15.5523 14.6846 15.503 14.6156 15.4416 14.5584L10.8833 10L15.4416 5.4417C15.552 5.32322 15.6121 5.16652 15.6093 5.0046C15.6064 4.84268 15.5408 4.68819 15.4263 4.57368C15.3118 4.45917 15.1573 4.39358 14.9954 4.39072C14.8335 4.38787 14.6768 4.44797 14.5583 4.55837L9.99997 9.1167L5.44163 4.55837Z" fill="black"/>
</svg>
