<svg width="24" height="25" viewBox="0 0 24 25" fill="none" xmlns="http://www.w3.org/2000/svg">
<path fill-rule="evenodd" clip-rule="evenodd" d="M14.75 4.25C14.75 4.05109 14.829 3.86032 14.9697 3.71967C15.1103 3.57902 15.3011 3.5 15.5 3.5H19C19.966 3.5 20.75 4.284 20.75 5.25V19.25C20.75 19.7141 20.5656 20.1592 20.2374 20.4874C19.9092 20.8156 19.4641 21 19 21H15.5C15.3011 21 15.1103 20.921 14.9697 20.7803C14.829 20.6397 14.75 20.4489 14.75 20.25C14.75 20.0511 14.829 19.8603 14.9697 19.7197C15.1103 19.579 15.3011 19.5 15.5 19.5H19C19.0663 19.5 19.1299 19.4737 19.1768 19.4268C19.2237 19.3799 19.25 19.3163 19.25 19.25V5.25C19.25 5.1837 19.2237 5.12011 19.1768 5.07322C19.1299 5.02634 19.0663 5 19 5H15.5C15.3011 5 15.1103 4.92098 14.9697 4.78033C14.829 4.63968 14.75 4.44891 14.75 4.25ZM2.75 12.25C2.75 12.0511 2.82902 11.8603 2.96967 11.7197C3.11032 11.579 3.30109 11.5 3.5 11.5H13.19L9.97 8.28C9.83752 8.13782 9.7654 7.94978 9.76882 7.75548C9.77225 7.56118 9.85097 7.37579 9.98838 7.23838C10.1258 7.10097 10.3112 7.02225 10.5055 7.01883C10.6998 7.0154 10.8878 7.08752 11.03 7.22L15.53 11.72C15.6705 11.8606 15.7493 12.0512 15.7493 12.25C15.7493 12.4488 15.6705 12.6394 15.53 12.78L11.03 17.28C10.9613 17.3537 10.8785 17.4128 10.7865 17.4538C10.6945 17.4948 10.5952 17.5168 10.4945 17.5186C10.3938 17.5204 10.2938 17.5018 10.2004 17.4641C10.107 17.4264 10.0222 17.3703 9.95096 17.299C9.87974 17.2278 9.8236 17.143 9.78588 17.0496C9.74816 16.9562 9.72963 16.8562 9.73141 16.7555C9.73318 16.6548 9.75523 16.5555 9.79622 16.4635C9.83721 16.3715 9.89631 16.2887 9.97 16.22L13.19 13H3.5C3.30109 13 3.11032 12.921 2.96967 12.7803C2.82902 12.6397 2.75 12.4489 2.75 12.25Z" fill="black"/>
</svg>
