<svg width="25" height="25" viewBox="0 0 25 25" fill="none" xmlns="http://www.w3.org/2000/svg">
<path fill-rule="evenodd" clip-rule="evenodd" d="M12.5 2.34375C11.1877 2.34375 9.92921 2.86505 9.00129 3.79296C8.07338 4.72088 7.55208 5.9794 7.55208 7.29167V9.63542H7.29167C6.8082 9.63542 6.34453 9.82747 6.00267 10.1693C5.66081 10.5112 5.46875 10.9749 5.46875 11.4583V20.8333C5.46875 21.2646 5.81875 21.6146 6.25 21.6146H18.75C18.9572 21.6146 19.1559 21.5323 19.3024 21.3858C19.4489 21.2393 19.5312 21.0405 19.5312 20.8333V11.4583C19.5312 10.9749 19.3392 10.5112 18.9973 10.1693C18.6555 9.82747 18.1918 9.63542 17.7083 9.63542H17.4479V7.29167C17.4479 5.9794 16.9266 4.72088 15.9987 3.79296C15.0708 2.86505 13.8123 2.34375 12.5 2.34375ZM15.8854 9.63542V7.29167C15.8854 6.3938 15.5287 5.5327 14.8939 4.89782C14.259 4.26293 13.3979 3.90625 12.5 3.90625C11.6021 3.90625 10.741 4.26293 10.1061 4.89782C9.47126 5.5327 9.11458 6.3938 9.11458 7.29167V9.63542H15.8854ZM7.03125 11.4583C7.03125 11.3893 7.05869 11.323 7.10752 11.2742C7.15636 11.2254 7.2226 11.1979 7.29167 11.1979H17.7083C17.7774 11.1979 17.8436 11.2254 17.8925 11.2742C17.9413 11.323 17.9688 11.3893 17.9688 11.4583V20.0521H7.03125V11.4583ZM12.5 13.5417C12.1557 13.5413 11.821 13.6546 11.5477 13.8641C11.2745 14.0735 11.078 14.3673 10.989 14.6999C10.8999 15.0324 10.9231 15.3851 11.0551 15.7031C11.1871 16.0211 11.4204 16.2866 11.7188 16.4583V17.7083C11.7188 17.9155 11.8011 18.1142 11.9476 18.2608C12.0941 18.4073 12.2928 18.4896 12.5 18.4896C12.7072 18.4896 12.9059 18.4073 13.0524 18.2608C13.1989 18.1142 13.2812 17.9155 13.2812 17.7083V16.4583C13.5796 16.2866 13.8129 16.0211 13.9449 15.7031C14.0769 15.3851 14.1001 15.0324 14.011 14.6999C13.922 14.3673 13.7255 14.0735 13.4523 13.8641C13.179 13.6546 12.8443 13.5413 12.5 13.5417Z" fill="black"/>
</svg>
