<svg width="25" height="25" viewBox="0 0 25 25" fill="none" xmlns="http://www.w3.org/2000/svg">
<path fill-rule="evenodd" clip-rule="evenodd" d="M5.98926 3.90625V21.0937H19.0101V3.90625H5.98926ZM4.42676 3.64583C4.42676 2.92708 5.01009 2.34375 5.72884 2.34375H19.2705C19.9893 2.34375 20.5726 2.92708 20.5726 3.64583V21.3542C20.5726 22.0729 19.9893 22.6562 19.2705 22.6562H5.72884C5.01009 22.6562 4.42676 22.0729 4.42676 21.3542V3.64583ZM12.4997 7.55208C11.8781 7.55208 11.2819 7.79901 10.8424 8.23855C10.4029 8.67809 10.1559 9.27423 10.1559 9.89583C10.1559 10.5174 10.4029 11.1136 10.8424 11.5531C11.2819 11.9927 11.8781 12.2396 12.4997 12.2396C13.1213 12.2396 13.7174 11.9927 14.157 11.5531C14.5965 11.1136 14.8434 10.5174 14.8434 9.89583C14.8434 9.27423 14.5965 8.67809 14.157 8.23855C13.7174 7.79901 13.1213 7.55208 12.4997 7.55208ZM8.59342 9.89583C8.59342 8.85983 9.00497 7.86626 9.73754 7.1337C10.4701 6.40113 11.4637 5.98958 12.4997 5.98958C13.5357 5.98958 14.5292 6.40113 15.2618 7.1337C15.9944 7.86626 16.4059 8.85983 16.4059 9.89583C16.4059 10.9318 15.9944 11.9254 15.2618 12.658C14.5292 13.3905 13.5357 13.8021 12.4997 13.8021C11.4637 13.8021 10.4701 13.3905 9.73754 12.658C9.00497 11.9254 8.59342 10.9318 8.59342 9.89583ZM10.4736 17.2448C10.8496 16.8687 11.3228 16.6046 11.8402 16.4822C12.3577 16.3597 12.8991 16.3838 13.4037 16.5516C13.9083 16.7194 14.3562 17.0243 14.6974 17.4323C15.0385 17.8403 15.2593 18.3351 15.3351 18.8615C15.347 18.9653 15.3795 19.0657 15.4309 19.1568C15.4823 19.2478 15.5514 19.3276 15.6342 19.3914C15.717 19.4552 15.8117 19.5018 15.9128 19.5284C16.0139 19.5549 16.1193 19.5609 16.2228 19.546C16.3263 19.5311 16.4257 19.4956 16.5151 19.4415C16.6046 19.3875 16.6824 19.316 16.7437 19.2314C16.8051 19.1468 16.8489 19.0507 16.8724 18.9489C16.896 18.847 16.8989 18.7415 16.8809 18.6385C16.729 17.5848 16.2024 16.621 15.3976 15.924C14.5928 15.2269 13.5638 14.8432 12.4992 14.8432C11.4345 14.8432 10.4055 15.2269 9.6007 15.924C8.79593 16.621 8.26932 17.5848 8.11738 18.6385C8.08782 18.8437 8.14096 19.0521 8.26511 19.2181C8.38925 19.384 8.57423 19.4939 8.77936 19.5234C8.98449 19.553 9.19296 19.4999 9.35891 19.3757C9.52486 19.2516 9.6347 19.0666 9.66426 18.8615C9.75246 18.2493 10.0364 17.6822 10.4736 17.2448Z" fill="black"/>
</svg>
