<svg width="65" height="65" viewBox="0 0 65 65" fill="none" xmlns="http://www.w3.org/2000/svg">
<rect width="65" height="65" rx="10" fill="#A371E0"/>
<path fill-rule="evenodd" clip-rule="evenodd" d="M32.5 15.3125C28.9362 15.3125 25.4606 16.4202 22.5541 18.4824C19.6476 20.5446 17.454 23.4593 16.2769 26.8231C15.0999 30.1868 14.9975 33.8333 15.984 37.2578C16.9705 40.6823 18.9971 43.7155 21.7833 45.9375C22.2874 43.4672 23.6294 41.247 25.5822 39.6524C27.5351 38.0578 29.9788 37.1868 32.5 37.1868C35.0212 37.1868 37.4649 38.0578 39.4178 39.6524C41.3706 41.247 42.7126 43.4672 43.2167 45.9375C46.0029 43.7155 48.0295 40.6823 49.016 37.2578C50.0025 33.8333 49.9001 30.1868 48.7231 26.8231C47.546 23.4593 45.3524 20.5446 42.4459 18.4824C39.5394 16.4202 36.0638 15.3125 32.5 15.3125ZM40.3062 47.8167C40.2255 45.8004 39.3678 43.8935 37.9127 42.4955C36.4576 41.0974 34.5179 40.3166 32.5 40.3166C30.4821 40.3166 28.5424 41.0974 27.0873 42.4955C25.6322 43.8935 24.7745 45.8004 24.6938 47.8167C27.1107 49.0503 29.7864 49.6916 32.5 49.6875C35.3125 49.6875 37.9646 49.0125 40.3062 47.8167ZM12.1875 32.5C12.1875 21.2812 21.2812 12.1875 32.5 12.1875C43.7188 12.1875 52.8125 21.2812 52.8125 32.5C52.8125 43.7188 43.7188 52.8125 32.5 52.8125C21.2812 52.8125 12.1875 43.7188 12.1875 32.5ZM32.5 22.6042C31.2568 22.6042 30.0645 23.098 29.1854 23.9771C28.3064 24.8562 27.8125 26.0485 27.8125 27.2917C27.8125 28.5349 28.3064 29.7272 29.1854 30.6062C30.0645 31.4853 31.2568 31.9792 32.5 31.9792C33.7432 31.9792 34.9355 31.4853 35.8146 30.6062C36.6936 29.7272 37.1875 28.5349 37.1875 27.2917C37.1875 26.0485 36.6936 24.8562 35.8146 23.9771C34.9355 23.098 33.7432 22.6042 32.5 22.6042ZM24.6875 27.2917C24.6875 25.2197 25.5106 23.2325 26.9757 21.7674C28.4409 20.3023 30.428 19.4792 32.5 19.4792C34.572 19.4792 36.5591 20.3023 38.0243 21.7674C39.4894 23.2325 40.3125 25.2197 40.3125 27.2917C40.3125 29.3637 39.4894 31.3508 38.0243 32.8159C36.5591 34.2811 34.572 35.1042 32.5 35.1042C30.428 35.1042 28.4409 34.2811 26.9757 32.8159C25.5106 31.3508 24.6875 29.3637 24.6875 27.2917Z" fill="#FFFCFC"/>
</svg>
