<svg width="65" height="65" viewBox="0 0 65 65" fill="none" xmlns="http://www.w3.org/2000/svg">
<rect width="65" height="65" rx="10" fill="#A371E0"/>
<path fill-rule="evenodd" clip-rule="evenodd" d="M36.1187 14.1187C35.4351 13.4355 34.5082 13.0518 33.5417 13.0518C32.5752 13.0518 31.6482 13.4355 30.9646 14.1187L27.6854 17.3958H13.75C13.3356 17.3958 12.9382 17.5604 12.6451 17.8534C12.3521 18.1464 12.1875 18.5439 12.1875 18.9583V37.7083C12.1875 38.1229 12.3521 38.5208 12.6458 38.8124L24.1042 50.2708C25.3812 51.5499 26.8521 52.2104 28.3146 52.2583C29.3743 52.296 30.4188 51.9972 31.2984 51.4048C32.1779 50.8124 32.8472 49.9566 33.2104 48.9604L33.4792 49.2312C34.7563 50.5083 36.2271 51.1687 37.6896 51.2166C38.7621 51.2542 39.8183 50.9471 40.7036 50.3405C41.5888 49.7338 42.2563 48.8595 42.6083 47.8458C43.6854 48.6666 44.8563 49.0958 46.025 49.1333C46.7134 49.1571 47.3993 49.0391 48.0401 48.7865C48.6809 48.5339 49.2629 48.1522 49.7499 47.665C50.2369 47.1779 50.6184 46.5957 50.8707 45.9548C51.123 45.3139 51.2408 44.6279 51.2167 43.9395C51.1687 42.477 50.5083 41.0062 49.2292 39.7291L48.7708 39.2708H51.25C51.6644 39.2708 52.0618 39.1061 52.3549 38.8131C52.6479 38.5201 52.8125 38.1227 52.8125 37.7083V18.9583C52.8125 18.5439 52.6479 18.1464 52.3549 17.8534C52.0618 17.5604 51.6644 17.3958 51.25 17.3958H39.3958L36.1187 14.1187ZM45.6479 36.1458H49.6875V20.5208H38.75C38.3357 20.5204 37.9386 20.3555 37.6458 20.0624L33.9104 16.327C33.862 16.2785 33.8046 16.24 33.7413 16.2138C33.678 16.1875 33.6102 16.174 33.5417 16.174C33.4732 16.174 33.4053 16.1875 33.342 16.2138C33.2788 16.24 33.2213 16.2785 33.1729 16.327L29.4396 20.0624L23.25 26.2499L24.4062 27.4062C24.6481 27.6481 24.9352 27.84 25.2512 27.9709C25.5672 28.1018 25.9059 28.1692 26.2479 28.1692C26.59 28.1692 26.9286 28.1018 27.2446 27.9709C27.5606 27.84 27.8478 27.6481 28.0896 27.4062L31.3958 24.1041C31.6888 23.8115 32.0859 23.6471 32.5 23.6471C32.9141 23.6471 33.3112 23.8115 33.6042 24.1041L45.6458 36.1458H45.6479ZM30.3854 47.1666C30.3667 46.6124 30.1167 45.8687 29.3125 45.0624L26.1875 41.9374C26.034 41.7944 25.9109 41.6219 25.8255 41.4302C25.7401 41.2386 25.6941 41.0317 25.6904 40.8219C25.6867 40.6121 25.7253 40.4037 25.8039 40.2091C25.8825 40.0145 25.9995 39.8378 26.1478 39.6894C26.2962 39.5411 26.4729 39.4241 26.6675 39.3455C26.8621 39.2669 27.0705 39.2283 27.2803 39.232C27.4901 39.2357 27.697 39.2817 27.8886 39.3671C28.0803 39.4525 28.2528 39.5756 28.3958 39.7291L31.5208 42.8541L35.6875 47.0208C36.4937 47.8249 37.2375 48.0749 37.7917 48.0937C38.053 48.1039 38.3135 48.06 38.557 47.9647C38.8005 47.8694 39.0217 47.7248 39.2066 47.5399C39.3915 47.355 39.5362 47.1338 39.6315 46.8903C39.7268 46.6468 39.7707 46.3862 39.7604 46.1249C39.7417 45.5708 39.4917 44.827 38.6875 44.0208L31.3958 36.7291C31.2423 36.5861 31.1192 36.4136 31.0338 36.2219C30.9484 36.0302 30.9025 35.8233 30.8988 35.6135C30.8951 35.4037 30.9337 35.1953 31.0122 35.0008C31.0908 34.8062 31.2078 34.6295 31.3562 34.4811C31.5045 34.3327 31.6813 34.2158 31.8758 34.1372C32.0704 34.0586 32.2788 34.02 32.4886 34.0237C32.6984 34.0274 32.9053 34.0733 33.097 34.1587C33.2886 34.2441 33.4611 34.3673 33.6042 34.5208L40.8958 41.8124L44.0208 44.9374C44.8271 45.7416 45.5708 45.9916 46.125 46.0104C46.3863 46.0206 46.6469 45.9767 46.8904 45.8814C47.1339 45.7861 47.355 45.6414 47.5399 45.4565C47.7248 45.2716 47.8695 45.0505 47.9648 44.807C48.0601 44.5635 48.104 44.3029 48.0938 44.0416C48.075 43.4874 47.825 42.7437 47.0208 41.9374L32.5 27.4166L30.3 29.6166C29.2256 30.691 27.7684 31.2945 26.249 31.2945C24.7295 31.2945 23.2723 30.691 22.1979 29.6166L19.9375 27.3541C19.6449 27.0611 19.4805 26.664 19.4805 26.2499C19.4805 25.8359 19.6449 25.4387 19.9375 25.1458L24.5625 20.5208H15.3125V37.0624L26.3125 48.0624C27.1187 48.8666 27.8625 49.1166 28.4167 49.1354C28.678 49.1456 28.9385 49.1017 29.182 49.0064C29.4255 48.9111 29.6467 48.7664 29.8316 48.5815C30.0165 48.3966 30.1612 48.1755 30.2565 47.932C30.3518 47.6885 30.3957 47.4279 30.3854 47.1666Z" fill="white"/>
</svg>
