<svg width="65" height="65" viewBox="0 0 65 65" fill="none" xmlns="http://www.w3.org/2000/svg">
<rect width="65" height="65" rx="10" fill="#A371E0"/>
<path fill-rule="evenodd" clip-rule="evenodd" d="M42.4317 22.1208C42.0173 22.1208 41.6199 22.2855 41.3268 22.5785C41.0338 22.8715 40.8692 23.2689 40.8692 23.6833C40.8692 24.0978 41.0338 24.4952 41.3268 24.7882C41.6199 25.0812 42.0173 25.2458 42.4317 25.2458H45.8775L36.665 34.4563L29.4359 27.2271C29.1429 26.9345 28.7458 26.7701 28.3317 26.7701C27.9176 26.7701 27.5205 26.9345 27.2275 27.2271L14.7275 39.7271C14.5782 39.8712 14.4591 40.0435 14.3771 40.2341C14.2952 40.4247 14.252 40.6297 14.2501 40.8372C14.2482 41.0447 14.2876 41.2504 14.3661 41.4425C14.4445 41.6345 14.5605 41.809 14.7071 41.9558C14.8538 42.1026 15.0282 42.2187 15.2202 42.2974C15.4121 42.376 15.6179 42.4156 15.8253 42.4139C16.0328 42.4122 16.2379 42.3692 16.4285 42.2874C16.6192 42.2056 16.7917 42.0867 16.9359 41.9375L28.3317 30.5417C28.3317 30.5417 35.2679 37.4782 35.5609 37.7708C35.8538 38.0635 36.251 38.2278 36.665 38.2278C37.0791 38.2278 37.4762 38.0635 37.7692 37.7708L48.2338 27.3084V31.0479C48.2338 31.4623 48.3984 31.8598 48.6914 32.1528C48.9845 32.4458 49.3819 32.6104 49.7963 32.6104C50.2107 32.6104 50.6081 32.4458 50.9011 32.1528C51.1942 31.8598 51.3588 31.4623 51.3588 31.0479V23.6833C51.3588 23.2689 51.1942 22.8715 50.9011 22.5785C50.6081 22.2855 50.2107 22.1208 49.7963 22.1208H42.4317Z" fill="white"/>
</svg>
