<svg width="65" height="65" viewBox="0 0 65 65" fill="none" xmlns="http://www.w3.org/2000/svg">
<rect width="65" height="65" rx="10" fill="#A371E0"/>
<path fill-rule="evenodd" clip-rule="evenodd" d="M19.4805 49.6875V15.3125H45.5221V49.6875H19.4805ZM18.9596 12.1875C17.5221 12.1875 16.3555 13.3542 16.3555 14.7917V50.2083C16.3555 51.6458 17.5221 52.8125 18.9596 52.8125H46.043C47.4805 52.8125 48.6471 51.6458 48.6471 50.2083V14.7917C48.6471 13.3542 47.4805 12.1875 46.043 12.1875H18.9596ZM30.3138 18.75C30.478 18.8731 30.6163 19.0274 30.7208 19.2039C30.8253 19.3805 30.8941 19.5759 30.9231 19.779C30.9521 19.9822 30.9408 20.189 30.8899 20.3878C30.839 20.5866 30.7494 20.7733 30.6263 20.9375L27.5013 25.1042C27.3669 25.2831 27.1957 25.4311 26.9992 25.5381C26.8027 25.6451 26.5854 25.7087 26.3622 25.7245C26.139 25.7403 25.915 25.708 25.7054 25.6297C25.4958 25.5514 25.3054 25.429 25.1471 25.2708L23.0638 23.1875C22.7878 22.8913 22.6375 22.4995 22.6447 22.0947C22.6518 21.69 22.8158 21.3037 23.1021 21.0175C23.3884 20.7312 23.7746 20.5672 24.1794 20.5601C24.5842 20.5529 24.9759 20.7032 25.2721 20.9792L26.0826 21.7875L28.1263 19.0625C28.2494 18.8983 28.4037 18.7601 28.5802 18.6555C28.7568 18.551 28.9522 18.4822 29.1553 18.4532C29.3585 18.4242 29.5653 18.4355 29.7641 18.4864C29.9629 18.5373 30.1497 18.6269 30.3138 18.75ZM34.5846 20.5208C34.1702 20.5208 33.7728 20.6855 33.4798 20.9785C33.1868 21.2715 33.0221 21.6689 33.0221 22.0833C33.0221 22.4977 33.1868 22.8952 33.4798 23.1882C33.7728 23.4812 34.1702 23.6458 34.5846 23.6458H39.793C40.2074 23.6458 40.6048 23.4812 40.8978 23.1882C41.1909 22.8952 41.3555 22.4977 41.3555 22.0833C41.3555 21.6689 41.1909 21.2715 40.8978 20.9785C40.6048 20.6855 40.2074 20.5208 39.793 20.5208H34.5846ZM26.2513 30.9375C25.8369 30.9375 25.4395 31.1021 25.1464 31.3951C24.8534 31.6882 24.6888 32.0856 24.6888 32.5C24.6888 32.9144 24.8534 33.3118 25.1464 33.6049C25.4395 33.8979 25.8369 34.0625 26.2513 34.0625H26.2721C26.6865 34.0625 27.084 33.8979 27.377 33.6049C27.67 33.3118 27.8346 32.9144 27.8346 32.5C27.8346 32.0856 27.67 31.6882 27.377 31.3951C27.084 31.1021 26.6865 30.9375 26.2721 30.9375H26.2513ZM30.9388 32.5C30.9388 32.0856 31.1034 31.6882 31.3965 31.3951C31.6895 31.1021 32.0869 30.9375 32.5013 30.9375H39.793C40.2074 30.9375 40.6048 31.1021 40.8978 31.3951C41.1909 31.6882 41.3555 32.0856 41.3555 32.5C41.3555 32.9144 41.1909 33.3118 40.8978 33.6049C40.6048 33.8979 40.2074 34.0625 39.793 34.0625H32.5013C32.0869 34.0625 31.6895 33.8979 31.3965 33.6049C31.1034 33.3118 30.9388 32.9144 30.9388 32.5ZM30.9388 40.8333C30.9388 40.4189 31.1034 40.0215 31.3965 39.7285C31.6895 39.4355 32.0869 39.2708 32.5013 39.2708H39.793C40.2074 39.2708 40.6048 39.4355 40.8978 39.7285C41.1909 40.0215 41.3555 40.4189 41.3555 40.8333C41.3555 41.2477 41.1909 41.6452 40.8978 41.9382C40.6048 42.2312 40.2074 42.3958 39.793 42.3958H32.5013C32.0869 42.3958 31.6895 42.2312 31.3965 41.9382C31.1034 41.6452 30.9388 41.2477 30.9388 40.8333ZM24.6888 40.8333C24.6888 40.4189 24.8534 40.0215 25.1464 39.7285C25.4395 39.4355 25.8369 39.2708 26.2513 39.2708H26.2721C26.6865 39.2708 27.084 39.4355 27.377 39.7285C27.67 40.0215 27.8346 40.4189 27.8346 40.8333C27.8346 41.2477 27.67 41.6452 27.377 41.9382C27.084 42.2312 26.6865 42.3958 26.2721 42.3958H26.2513C25.8369 42.3958 25.4395 42.2312 25.1464 41.9382C24.8534 41.6452 24.6888 41.2477 24.6888 40.8333Z" fill="white"/>
</svg>
