<svg width="65" height="65" viewBox="0 0 65 65" fill="none" xmlns="http://www.w3.org/2000/svg">
<rect width="65" height="65" rx="10" fill="#A371E0"/>
<path fill-rule="evenodd" clip-rule="evenodd" d="M37.8336 12.8376C38.1643 12.9935 38.4299 13.2605 38.584 13.5921C38.7382 13.9236 38.7712 14.2988 38.6773 14.6522L35.2648 27.4501L44.6044 28.3188C44.878 28.3445 45.1399 28.4418 45.3638 28.601C45.5878 28.7603 45.7658 28.9757 45.8799 29.2257C45.994 29.4756 46.0401 29.7512 46.0137 30.0247C45.9873 30.2982 45.8892 30.5599 45.7294 30.7834L30.1044 52.6584C29.8917 52.9567 29.5811 53.1707 29.2266 53.2632C28.8722 53.3557 28.4965 53.3208 28.1653 53.1644C27.834 53.0081 27.5682 52.7404 27.4143 52.408C27.2603 52.0756 27.2281 51.6997 27.3231 51.3459L30.7356 38.5501L21.3961 37.6813C21.1225 37.6557 20.8605 37.5583 20.6366 37.3991C20.4127 37.2399 20.2347 37.0244 20.1206 36.7745C20.0065 36.5245 19.9603 36.2489 19.9867 35.9754C20.0132 35.7019 20.1112 35.4402 20.2711 35.2167L35.8961 13.3417C36.1089 13.0442 36.4194 12.8307 36.7735 12.7386C37.1275 12.6465 37.5027 12.6815 37.8336 12.8376ZM24.394 34.8209L32.8669 35.6126C33.0931 35.6337 33.3121 35.7039 33.5084 35.8183C33.7048 35.9327 33.8738 36.0886 34.0037 36.275C34.1336 36.4615 34.2213 36.674 34.2606 36.8978C34.3 37.1216 34.29 37.3513 34.2315 37.5709L32.5586 43.848L41.6065 31.1792L33.1336 30.3876C32.9073 30.3665 32.6884 30.2963 32.492 30.1818C32.2957 30.0674 32.1267 29.9116 31.9967 29.7251C31.8668 29.5387 31.7791 29.3261 31.7398 29.1023C31.7005 28.8785 31.7104 28.6488 31.769 28.4292L33.4419 22.1522L24.394 34.8209Z" fill="white"/>
</svg>
