<svg width="65" height="65" viewBox="0 0 65 65" fill="none" xmlns="http://www.w3.org/2000/svg">
<rect width="65" height="65" rx="10" fill="#A371E0"/>
<path fill-rule="evenodd" clip-rule="evenodd" d="M26.25 15.3125C24.178 15.3125 22.1909 16.1356 20.7257 17.6007C19.2606 19.0659 18.4375 21.053 18.4375 23.125C18.4375 25.197 19.2606 27.1841 20.7257 28.6493C22.1909 30.1144 24.178 30.9375 26.25 30.9375C28.322 30.9375 30.3091 30.1144 31.7743 28.6493C33.2394 27.1841 34.0625 25.197 34.0625 23.125C34.0625 21.053 33.2394 19.0659 31.7743 17.6007C30.3091 16.1356 28.322 15.3125 26.25 15.3125ZM15.3125 23.125C15.3125 21.6887 15.5954 20.2664 16.1451 18.9394C16.6947 17.6124 17.5004 16.4067 18.516 15.391C19.5317 14.3754 20.7374 13.5697 22.0644 13.0201C23.3914 12.4704 24.8137 12.1875 26.25 12.1875C27.6863 12.1875 29.1086 12.4704 30.4356 13.0201C31.7626 13.5697 32.9683 14.3754 33.984 15.391C34.9996 16.4067 35.8053 17.6124 36.3549 18.9394C36.9046 20.2664 37.1875 21.6887 37.1875 23.125C37.1875 26.0258 36.0352 28.8078 33.984 30.859C31.9328 32.9102 29.1508 34.0625 26.25 34.0625C23.3492 34.0625 20.5672 32.9102 18.516 30.859C16.4648 28.8078 15.3125 26.0258 15.3125 23.125ZM26.25 40.3125C23.3492 40.3125 20.5672 41.4648 18.516 43.516C16.4648 45.5672 15.3125 48.3492 15.3125 51.25C15.3125 51.6644 15.1479 52.0618 14.8549 52.3549C14.5618 52.6479 14.1644 52.8125 13.75 52.8125C13.3356 52.8125 12.9382 52.6479 12.6451 52.3549C12.3521 52.0618 12.1875 51.6644 12.1875 51.25C12.1875 47.5204 13.6691 43.9435 16.3063 41.3063C18.9435 38.6691 22.5204 37.1875 26.25 37.1875C29.9796 37.1875 33.5565 38.6691 36.1937 41.3063C38.8309 43.9435 40.3125 47.5204 40.3125 51.25C40.3125 51.6644 40.1479 52.0618 39.8549 52.3549C39.5618 52.6479 39.1644 52.8125 38.75 52.8125C38.3356 52.8125 37.9382 52.6479 37.6451 52.3549C37.3521 52.0618 37.1875 51.6644 37.1875 51.25C37.1875 48.3492 36.0352 45.5672 33.984 43.516C31.9328 41.4648 29.1508 40.3125 26.25 40.3125ZM41.2792 17.7625C40.8819 17.6443 40.4539 17.6887 40.0894 17.886C39.7249 18.0833 39.4537 18.4173 39.3354 18.8146C39.2172 19.2119 39.2616 19.6398 39.4589 20.0044C39.6562 20.3689 39.9902 20.6401 40.3875 20.7583C41.7018 21.1561 42.8296 22.0123 43.566 23.1713C44.3024 24.3303 44.5983 25.7151 44.4 27.0738C44.2018 28.4325 43.5224 29.675 42.4855 30.5752C41.4487 31.4754 40.1231 31.9736 38.75 31.9792C38.3356 31.9792 37.9382 32.1438 37.6451 32.4368C37.3521 32.7298 37.1875 33.1273 37.1875 33.5417V35.625C37.1875 36.0394 37.3521 36.4368 37.6451 36.7299C37.9382 37.0229 38.3356 37.1875 38.75 37.1875C41.0983 37.1875 43.3504 38.1203 45.0108 39.7808C46.6713 41.4413 47.6042 43.6934 47.6042 46.0417C47.6042 46.4561 47.7688 46.8535 48.0618 47.1465C48.3548 47.4395 48.7523 47.6042 49.1667 47.6042C49.5811 47.6042 49.9785 47.4395 50.2715 47.1465C50.5646 46.8535 50.7292 46.4561 50.7292 46.0417C50.7292 43.4252 49.8727 40.8807 48.2904 38.7969C46.7081 36.7131 44.487 35.2047 41.9667 34.5021C43.6862 33.832 45.1535 32.6415 46.1634 31.0969C47.1734 29.5523 47.6756 27.7307 47.5998 25.8868C47.5241 24.0429 46.8742 22.2687 45.741 20.8121C44.6078 19.3555 43.0479 18.2893 41.2792 17.7625Z" fill="white"/>
</svg>
